<svg width="25" height="25" viewBox="0 0 25 25" fill="none" xmlns="http://www.w3.org/2000/svg">
<path fill-rule="evenodd" clip-rule="evenodd" d="M14.9844 16.0894C12.2237 18.3005 8.18264 18.1265 5.62349 15.5673C2.87762 12.8214 2.87762 8.36949 5.62349 5.62361C8.36937 2.87774 12.8213 2.87774 15.5672 5.62361C18.1263 8.18276 18.3004 12.2238 16.0893 14.9845L21.4597 20.355C21.7648 20.6601 21.7648 21.1547 21.4597 21.4598C21.1546 21.7649 20.66 21.7649 20.3549 21.4598L14.9844 16.0894ZM6.72835 14.4624C4.59267 12.3268 4.59267 8.86415 6.72835 6.72847C8.86403 4.59279 12.3266 4.59279 14.4623 6.72847C16.5964 8.86258 16.598 12.3217 14.467 14.4577C14.4655 14.4593 14.4639 14.4609 14.4623 14.4624C14.4607 14.464 14.4592 14.4656 14.4576 14.4671C12.3216 16.5981 8.86246 16.5966 6.72835 14.4624Z" fill="#757575"/>
</svg>
